<svg xmlns="http://www.w3.org/2000/svg" width="74.002" height="32.774" viewBox="0 0 74.002 32.774"><g fill="#231F20"><path d="M11.16 7.11c-2.343 0-4.376 2.328-5.178 5.93-.203.91.617 2.048 2.437 3.393-1.405 1.167-2.63 2.552-2.35 3.665.862 3.432 2.813 5.564 5.09 5.564 3.103 0 5.533-4.074 5.533-9.276 0-5.2-2.43-9.276-5.535-9.276m0 16.566c-1.205 0-2.457-1.615-3.067-3.942.184-.466 1.406-1.648 2.648-2.554.265-.195.418-.5.407-.82-.008-.323-.18-.62-.453-.798-1.203-.78-2.418-1.81-2.668-2.25.59-2.49 1.867-4.216 3.135-4.216 1.65 0 3.48 2.994 3.48 7.29s-1.83 7.29-3.48 7.29"/><path d="M72.373 12.258H22.75c-.26 0-.52.015-.78.044C20.724 5.112 16.29 0 11.16 0 5.007 0 0 7.352 0 16.386c0 9.036 5.007 16.386 11.16 16.386 4.828 0 9.08-4.547 10.58-11.18.334.045.672.07 1.008.07h32.25v2.86c0 .94.728 1.708 1.625 1.708h5.396c.893 0 1.623-.768 1.623-1.71v-2.858h1.705v2.86c0 .94.73 1.708 1.626 1.708h5.396c.898 0 1.627-.768 1.627-1.71V13.966c0-.94-.73-1.707-1.628-1.707m-.43 11.985H67.4V20.67c0-.55-.46-.993-1.028-.993h-3.76c-.567 0-1.03.443-1.03.992v3.573H57.05V20.67c0-.55-.457-.993-1.027-.993H22.75c-.51 0-1.02-.076-1.517-.223-.28-.08-.586-.047-.84.104-.25.15-.423.396-.473.678-1.104 6.213-4.707 10.55-8.76 10.55-5.02 0-9.104-6.458-9.104-14.4C2.056 8.45 6.14 1.99 11.16 1.99c4.324 0 8.078 4.883 8.926 11.61.037.287.2.543.448.705.25.16.557.21.844.132.482-.127.93-.19 1.37-.19h49.197v10z"/></g></svg>