<svg xmlns="http://www.w3.org/2000/svg" width="94.003" height="31.334" viewBox="0 0 94.003 31.334"><g fill="#231F20"><path d="M93.22 25.958c-1.706-2.396-5.453-4.705-7.284-5.743 3.08-5.046 4.54-11.487 4.54-17.9 0-.478-.363-.89-.857-.967C89.53 1.334 80.88 0 72.252 0c-4.445 0-13.138 1.67-18.63 5.377l-.063.038c-.04.025-.946.61-2.35 1.807-1.948 1.66-2.678 2.282-4.28 2.296-1.62-.014-2.35-.636-4.348-2.337-1.354-1.152-2.262-1.74-2.3-1.762-.02-.012-.04-.026-.064-.037C34.724 1.67 26.03 0 21.585 0 12.96 0 4.31 1.334 4.223 1.348c-.493.078-.856.488-.856.968 0 7.647 1.753 13.597 4.543 17.987C6.032 21.38 2.44 23.626.78 25.96c-1.297 1.826-.69 3.133-.213 3.75.845 1.092 2.49 1.623 3.996 1.623.552 0 1.086-.072 1.557-.213 1.26-.377 2.31-1.81 3.422-3.328.703-.96 1.882-2.566 2.466-2.648.01-.002.03-.008.104.05l.01-.013c3.774 3.22 8.364 4.76 12.938 4.76 10.315 0 16.534-6.323 18.778-11.825.04-.06.072-.126.097-.195.778-2.185 2.468-2.355 2.966-2.356h.037c.5 0 2.19.17 2.97 2.355.024.066.056.13.095.19 2.24 5.502 8.46 11.83 18.78 11.83 5.417 0 9.748-1.82 13.076-4.784l.03.038c.076-.057.096-.05.105-.05.585.083 1.764 1.69 2.467 2.65 1.113 1.517 2.163 2.95 3.423 3.327.47.14 1.002.214 1.555.214 1.507 0 3.15-.53 3.996-1.623.483-.616 1.088-1.923-.21-3.75m-85.35.706c-.743 1.018-1.763 2.408-2.36 2.586-1.11.333-2.772-.024-3.3-.706-.102-.133-.413-.533.26-1.48 1.457-2.047 4.87-4.154 6.584-5.13.477.622.975 1.205 1.496 1.753-.948.63-1.798 1.776-2.68 2.977M51.84 17.23c-.02-.05-.044-.1-.07-.147-1.286-3.285-4.21-3.472-4.824-3.476H46.9c-.6.002-3.533.18-4.82 3.474-.03.05-.053.1-.075.15-1.944 4.96-7.548 10.756-16.943 10.756-4.826 0-8.7-1.635-11.694-4.31l.012-.016c-.032-.025-.07-.04-.102-.063-5.185-4.692-7.694-12.53-7.86-20.44 2.378-.33 9.285-1.196 16.168-1.196 2.294 0 5.952.51 9.614 1.575l-8.86 16.53c-.257.48-.06 1.07.442 1.32.15.073.31.106.466.106.372 0 .728-.192.91-.53l9.002-16.8c2.17.757 4.256 1.71 5.963 2.876.033.023.066.042.1.06.236.16.987.686 2.047 1.586 2.028 1.733 3.253 2.777 5.66 2.797 2.387-.02 3.61-1.063 5.688-2.835 1.02-.87 1.766-1.387 2-1.547.034-.018.068-.037.1-.06 5.065-3.464 13.46-5.078 17.538-5.078.558 0 1.113.007 1.668.018l-9.504 17.73c-.257.48-.06 1.07.442 1.316.15.074.31.108.466.108.37 0 .728-.193.91-.53l9.945-18.555c5.436.228 10.318.845 12.24 1.11C88.16 15.65 82.057 27.98 68.78 27.98c-9.394 0-14.998-5.792-16.943-10.752m39.955 11.316c-.527.682-2.19 1.04-3.3.707-.598-.175-1.618-1.565-2.36-2.583-.904-1.23-1.772-2.406-2.747-3.025.51-.562.99-1.155 1.443-1.774 1.67.943 5.213 3.104 6.703 5.197.678.95.366 1.35.264 1.482"/><path d="M22.632 10.665c-.502-.246-1.118-.055-1.375.424l-5.25 9.784c-.256.48-.058 1.072.444 1.32.15.072.31.107.468.107.37 0 .73-.194.91-.53l5.247-9.79c.257-.48.06-1.07-.44-1.317m42.076-.358c-.503-.247-1.117-.056-1.375.424l-5.246 9.79c-.26.48-.06 1.07.44 1.316.15.073.31.11.467.11.37 0 .728-.196.91-.534l5.245-9.787c.26-.482.06-1.073-.44-1.32"/></g></svg>