<svg xmlns="http://www.w3.org/2000/svg" width="53" height="33.279" viewBox="0 0 53 33.279"><path fill="#231F20" d="M48.8 0H4.2C1.884 0 0 1.776 0 3.96v25.36c0 2.185 1.884 3.96 4.2 3.96h44.602c2.316 0 4.2-1.775 4.2-3.96V3.96C53 1.777 51.117 0 48.8 0m-9.507 16.96l11.35-7.933v20.23L39.295 16.96zM4.2 2.298h44.602c1.016 0 1.844.746 1.844 1.664v2.243L29.03 21.313c-.805.514-1.582.756-2.447.756-.866 0-1.645-.245-2.41-.73L2.356 6.086V3.96c0-.918.828-1.663 1.845-1.663m-1.83 27.14c0-.038-.013-.075-.013-.116V8.915L13.88 16.97 2.37 29.44zm1.83 1.547c-.027 0-.056-.006-.084-.006l11.688-12.665 7.038 4.92c1.19.76 2.416 1.13 3.74 1.132l.004-1.147.004 1.147c1.324-.002 2.547-.37 3.777-1.16l7.008-4.897 11.682 12.655c-.084.01-.166.02-.252.02H4.2z"/><path fill="none" d="M-45.667-55.36H98.667v144H-45.667z"/></svg>